<svg width="657" height="406" viewBox="0 0 657 406" fill="none" xmlns="http://www.w3.org/2000/svg">
<g filter="url(#filter0_d_17_170)">
<rect x="10" width="637" height="376" rx="30" fill="#0581F3"/>
</g>
<path d="M88.015 226V163.6H112.895C118.228 163.6 122.522 164.373 125.775 165.92C129.028 167.413 131.402 169.44 132.895 172C134.442 174.56 135.215 177.493 135.215 180.8C135.215 184.8 134.122 188.213 131.935 191.04C129.748 193.867 126.548 195.84 122.335 196.96L136.895 225.52V226H125.055L111.375 198.56H99.055V226H88.015ZM99.055 190.16H111.695C115.802 190.16 118.842 189.44 120.815 188C122.788 186.56 123.775 184.293 123.775 181.2C123.775 178.053 122.762 175.787 120.735 174.4C118.762 172.96 115.748 172.24 111.695 172.24H99.055V190.16ZM164.163 227.2C156.856 227.2 151.283 224.933 147.443 220.4C143.603 215.813 141.683 209.653 141.683 201.92C141.683 196.8 142.536 192.373 144.243 188.64C145.949 184.907 148.456 182 151.763 179.92C155.122 177.84 159.203 176.8 164.003 176.8C170.883 176.8 176.136 178.96 179.763 183.28C183.389 187.547 185.203 193.813 185.203 202.08V204.64H152.242C152.509 209.013 153.629 212.533 155.603 215.2C157.629 217.867 160.483 219.2 164.163 219.2C166.936 219.2 169.149 218.4 170.803 216.8C172.509 215.2 173.683 213.147 174.323 210.64H184.643C184.056 213.733 182.936 216.533 181.283 219.04C179.683 221.493 177.469 223.467 174.642 224.96C171.816 226.453 168.323 227.2 164.163 227.2ZM152.322 197.44H174.642C174.429 193.333 173.389 190.16 171.523 187.92C169.709 185.68 167.176 184.56 163.923 184.56C160.563 184.56 157.896 185.653 155.923 187.84C153.949 190.027 152.749 193.227 152.322 197.44ZM194.556 226V178H204.396V185.2H206.316C207.276 182.693 208.796 180.667 210.876 179.12C213.01 177.573 215.916 176.8 219.596 176.8C225.09 176.8 229.116 178.507 231.676 181.92C234.29 185.28 235.596 189.76 235.596 195.36V226H224.796V197.36C224.796 193.627 224.13 190.773 222.796 188.8C221.463 186.773 219.356 185.76 216.476 185.76C212.956 185.76 210.21 187.147 208.236 189.92C206.316 192.64 205.356 196.027 205.356 200.08V226H194.556ZM254.273 226C253.046 224.56 252.059 222.827 251.313 220.8C250.619 218.773 250.273 215.733 250.273 211.68V185.92H243.713V178H250.432V166H260.992V178H268.912V185.92H261.073V210.32C261.073 214.587 261.526 217.84 262.432 220.08C263.392 222.267 264.539 224.08 265.872 225.52V226H254.273ZM297.171 226V163.6H308.371V188H337.491V163.6H348.691V226H337.491V197.2H308.371V226H297.171ZM381.073 227.2C373.499 227.2 367.819 224.933 364.033 220.4C360.299 215.813 358.433 209.68 358.433 202C358.433 194.32 360.299 188.213 364.033 183.68C367.819 179.093 373.499 176.8 381.073 176.8C388.753 176.8 394.459 179.093 398.193 183.68C401.926 188.213 403.792 194.32 403.792 202C403.792 209.68 401.926 215.813 398.193 220.4C394.459 224.933 388.753 227.2 381.073 227.2ZM381.153 219.36C385.099 219.36 387.979 217.867 389.793 214.88C391.659 211.84 392.593 207.547 392.593 202C392.593 196.453 391.659 192.187 389.793 189.2C387.979 186.16 385.099 184.64 381.153 184.64C377.153 184.64 374.219 186.16 372.353 189.2C370.539 192.187 369.633 196.453 369.633 202C369.633 207.547 370.539 211.84 372.353 214.88C374.219 217.867 377.153 219.36 381.153 219.36ZM428.715 227.2C423.222 227.2 419.168 225.493 416.555 222.08C413.942 218.667 412.635 214.187 412.635 208.64V178H423.435V206.64C423.435 210.32 424.102 213.173 425.435 215.2C426.768 217.227 428.875 218.24 431.755 218.24C435.328 218.24 438.075 216.853 439.995 214.08C441.915 211.307 442.875 207.92 442.875 203.92V178H453.675V226H443.995V218.8H442.075C441.222 221.307 439.702 223.333 437.515 224.88C435.328 226.427 432.395 227.2 428.715 227.2ZM483.231 227.2C478.325 227.2 474.351 226.4 471.311 224.8C468.325 223.147 466.085 221.04 464.591 218.48C463.151 215.92 462.351 213.307 462.191 210.64H472.591C472.805 212.133 473.338 213.547 474.191 214.88C475.098 216.213 476.325 217.28 477.871 218.08C479.418 218.88 481.365 219.28 483.711 219.28C486.378 219.28 488.378 218.773 489.711 217.76C491.045 216.693 491.711 215.307 491.711 213.6C491.711 212.16 491.151 210.933 490.031 209.92C488.911 208.853 487.151 207.893 484.751 207.04L478.991 205.12C476.325 204.16 473.871 203.12 471.631 202C469.445 200.827 467.685 199.36 466.351 197.6C465.071 195.787 464.431 193.493 464.431 190.72C464.431 186.56 465.978 183.2 469.071 180.64C472.165 178.08 476.485 176.8 482.031 176.8C486.031 176.8 489.311 177.467 491.871 178.8C494.485 180.08 496.458 181.84 497.791 184.08C499.125 186.267 499.898 188.72 500.111 191.44H490.111C489.845 189.467 489.018 187.813 487.631 186.48C486.298 185.147 484.298 184.48 481.631 184.48C479.338 184.48 477.578 184.96 476.351 185.92C475.178 186.88 474.591 188.16 474.591 189.76C474.591 191.36 475.178 192.693 476.351 193.76C477.578 194.773 479.418 195.707 481.871 196.56L487.551 198.4C490.218 199.307 492.645 200.347 494.831 201.52C497.018 202.64 498.725 204.107 499.951 205.92C501.231 207.68 501.871 209.947 501.871 212.72C501.871 217.04 500.271 220.533 497.071 223.2C493.925 225.867 489.311 227.2 483.231 227.2ZM530.069 227.2C522.762 227.2 517.189 224.933 513.349 220.4C509.509 215.813 507.589 209.653 507.589 201.92C507.589 196.8 508.442 192.373 510.149 188.64C511.855 184.907 514.362 182 517.669 179.92C521.029 177.84 525.109 176.8 529.909 176.8C536.789 176.8 542.042 178.96 545.669 183.28C549.295 187.547 551.109 193.813 551.109 202.08V204.64H518.149C518.415 209.013 519.535 212.533 521.509 215.2C523.535 217.867 526.389 219.2 530.069 219.2C532.842 219.2 535.055 218.4 536.709 216.8C538.415 215.2 539.589 213.147 540.229 210.64H550.549C549.962 213.733 548.842 216.533 547.189 219.04C545.589 221.493 543.375 223.467 540.549 224.96C537.722 226.453 534.229 227.2 530.069 227.2ZM518.229 197.44H540.549C540.335 193.333 539.295 190.16 537.429 187.92C535.615 185.68 533.082 184.56 529.829 184.56C526.469 184.56 523.802 185.653 521.829 187.84C519.855 190.027 518.655 193.227 518.229 197.44ZM564.943 226.48C562.756 226.48 561.076 225.893 559.903 224.72C558.729 223.493 558.143 221.867 558.143 219.84C558.143 217.76 558.729 216.133 559.903 214.96C561.076 213.787 562.756 213.2 564.943 213.2C567.129 213.2 568.783 213.787 569.903 214.96C571.023 216.133 571.583 217.76 571.583 219.84C571.583 221.867 571.023 223.493 569.903 224.72C568.783 225.893 567.129 226.48 564.943 226.48Z" fill="white"/>
<defs>
<filter id="filter0_d_17_170" x="0" y="0" width="657" height="406" filterUnits="userSpaceOnUse" color-interpolation-filters="sRGB">
<feFlood flood-opacity="0" result="BackgroundImageFix"/>
<feColorMatrix in="SourceAlpha" type="matrix" values="0 0 0 0 0 0 0 0 0 0 0 0 0 0 0 0 0 0 127 0" result="hardAlpha"/>
<feOffset dy="20"/>
<feGaussianBlur stdDeviation="5"/>
<feComposite in2="hardAlpha" operator="out"/>
<feColorMatrix type="matrix" values="0 0 0 0 0 0 0 0 0 0 0 0 0 0 0 0 0 0 0.25 0"/>
<feBlend mode="normal" in2="BackgroundImageFix" result="effect1_dropShadow_17_170"/>
<feBlend mode="normal" in="SourceGraphic" in2="effect1_dropShadow_17_170" result="shape"/>
</filter>
</defs>
</svg>
